<?xml version="1.0" encoding="utf-8"?>
<!-- Generator: Adobe Illustrator 22.1.0, SVG Export Plug-In . SVG Version: 6.00 Build 0)  -->
<svg width="100" height="21" version="1.1" id="Layer_1" xmlns="http://www.w3.org/2000/svg" xmlns:xlink="http://www.w3.org/1999/xlink" x="0px" y="0px"
	 viewBox="0 0 2500 607" style="enable-background:new 0 0 2500 607;" xml:space="preserve">
<style type="text/css">
	.st0{fill:#29B2FE;}
</style>
<path class="st0" d="M343.4,91.1L0,72l223.8,240L343.4,91.1z M171.6,65.5L330,76.8L133.7,0L171.6,65.5z M369.9,76.8L454.3,0
	l56.9,81.6L369.9,76.8z M360.4,92L236.1,321.5L349,445.7l127-118.5l35.1-227.6L360.4,92z M242.8,357.5L183,607l155.5-148
	L242.8,357.5z M472.3,3.8L533,81.6L814.7,3.8H472.3z"/>
<path d="M736.2,145.1c0.1,19.3-1.1,38.5-3.6,57.6c-19.9,0.7-44.8-6.5-44.1,27.7c30.6-0.7,38.8,0,38.8,0s-1.4,60.5-47,58.2
	c-16.4,92.5-32,173.6-32,173.6h-73l39.8-258.7c0,0,9.2-52.6,56.9-58.2L736.2,145.1z M704.2,462.4l38.4-236.1h66.9l5.2,17.8
	c0,0,16.8-23.5,67.3-17.8c-12.1,57.6-14.2,66.2-14.2,66.2s-55.5-5.7-59.8,12.1c-4.3,17.8-26.3,157.9-26.3,157.9L704.2,462.4z
	 M1296.7,268.9c-14.9-27-42-51.7-106-43.6c-64,8.1-109.9,71.1-106.7,156.6c6.5,71.1,57,83.7,74.7,86.1
	c120.2,14.2,121.7-48.4,122.4-71.9c-24.9,0-36.6,0.5-47,0.7c-3,9.8-51.7,5-51.7,5s-18.5-1.4-19.9-34.1h134.5
	C1296.9,367.7,1311.7,296,1296.7,268.9z M1227.7,326.5c-13.5,1.4-59,0-59,0C1186.5,256.1,1235.5,286.7,1227.7,326.5z M2241.3,268.9
	c-14.9-27-42-51.7-106-43.6s-109.9,71.1-106.7,156.6c6.5,71.1,57,83.7,74.7,86.1c120.2,14.2,121.7-48.4,122.4-71.9
	c-24.9,0-36.6,0.5-47,0.7c-3,9.8-51.7,5-51.7,5s-18.5-1.4-19.9-34.1h134.3C2241.3,367.7,2255.9,296,2241.3,268.9z M2172.3,326.5
	c-13.5,1.4-59,0-59,0c17.5-70.4,66.6-39.8,58.7,0H2172.3z"/>
<path d="M1077.2,268.9c-14.9-27-42-51.7-106-43.6c-64,8.1-109.9,71.1-106.7,156.6c6.5,71.1,57,83.7,74.7,86.1
	c120.2,14.2,121.7-48.4,122.4-71.9c-24.9,0-36.6,0.5-47,0.7c-3,9.8-51.7,5-51.7,5s-18.5-1.4-19.9-34.1h134.3
	C1077.2,367.7,1092.2,296,1077.2,268.9L1077.2,268.9z M1008.1,326.5c-13.5,1.4-59,0-59,0C967.2,256.1,1016,286.7,1008.1,326.5
	L1008.1,326.5z M1347.2,150.8l-49.1,311.5h78.3l52.6-311.5L1347.2,150.8z M1609.7,462.4l39.8-237h69.7v18.1c0,0,24.2-26.3,88.2-18.1
	c64,8.1,32,121.8,32,121.8l-17.1,115.4h-76.8c0,0,17.8-116.4,21.3-147.3c-3.6-34.9-44.8-33.4-54.8-8.5
	c-5,30.6-27.7,155.8-27.7,155.8L1609.7,462.4z M1956.1,293.1h70.4l6.5-46.2c0,0,8.5-21.3-21.3-21.7s-74.7,0-74.7,0
	s-87.5,12.4-82.5,183.9c4.6,30.6,27.9,55.1,58.2,61.1c6.5,1.4,51.7,0,51.7,0s50.5-6.5,43.4-69.7c-52.6,1.4-74.7,3.6-77.6-11.4
	C1927.2,374.2,1936.2,298.8,1956.1,293.1L1956.1,293.1z M2259.1,304.4l92-79.3L2316,462.4h-77.7L2259.1,304.4z"/>
<path class="st0" d="M2370.1,225.1l-13.3,85l143.2-86.3L2370.1,225.1z"/>
<path d="M1564.2,225.3c-59-0.5-72.6,0.5-94.6,0c-22.1-0.5-37,32.3-35.6,67.1h90.5c0,0,9.2-1.4,10,6.5c0.4,7.6,0.4,15.2,0,22.8h-65.6
	c0,0-92.5,8.5-63.3,120.2c5.7,17.1,34.1,29,49.8,28.4c15.7-0.6,54.8-14.9,61.2-20.6l0.7,13.5l69.7-0.7c0,0,23.5-145.8,26.3-157.9
	C1616.1,292.5,1621.1,245.8,1564.2,225.3L1564.2,225.3z M1503.2,410.7c-27.5,0-31.3-26.6-9.4-40.8c21.8-9.5,35.1-3.8,35.1-3.8
	S1529.9,411.7,1503.2,410.7L1503.2,410.7z"/>
</svg>
