<?xml version="1.0" encoding="utf-8"?>
<!-- Generator: Adobe Illustrator 16.0.0, SVG Export Plug-In . SVG Version: 6.00 Build 0)  -->
<!DOCTYPE svg PUBLIC "-//W3C//DTD SVG 1.1//EN" "http://www.w3.org/Graphics/SVG/1.1/DTD/svg11.dtd">
<svg width="133" height="21" version="1.1" id="Layer_1" xmlns="http://www.w3.org/2000/svg" xmlns:xlink="http://www.w3.org/1999/xlink" x="0px" y="0px"
	   viewBox="0 0 835 135" enable-background="new 0 0 835 135" xml:space="preserve">
<g>
	<g id="XMLID_4_">
		<g>
			<path fill="#FF5400" d="M66.331,1.811c36.297,0,65.704,29.406,65.704,65.674c0,36.298-29.406,65.704-65.704,65.704
				c-36.268,0-65.674-29.406-65.674-65.704C0.657,31.217,30.063,1.811,66.331,1.811z M120.361,67.485
				c0-29.822-24.178-54.001-54.03-54.001c-29.822,0-54.001,24.179-54.001,54.001c0,29.852,24.179,54.03,54.001,54.03
				C96.183,121.516,120.361,97.337,120.361,67.485z"/>
			<path fill="#FFFFFF" d="M66.331,13.484c29.852,0,54.03,24.179,54.03,54.001c0,29.852-24.178,54.03-54.03,54.03
				c-29.822,0-54.001-24.179-54.001-54.03C12.33,37.663,36.509,13.484,66.331,13.484z"/>
		</g>
		<g>
		</g>
	</g>
	<path fill-rule="evenodd" clip-rule="evenodd" fill="#FF5400" d="M25.991,51.205c0-6.812,5.518-12.336,12.336-12.336
		c6.812,0,12.343,5.524,12.343,12.336c0,6.818-5.531,12.337-12.343,12.337C31.509,63.542,25.991,58.023,25.991,51.205z"/>
	<path fill-rule="evenodd" clip-rule="evenodd" fill="#FF5400" d="M81.484,51.205c0-6.812,5.517-12.336,12.335-12.336
		c6.812,0,12.329,5.524,12.329,12.336c0,6.818-5.518,12.337-12.329,12.337C87.001,63.542,81.484,58.023,81.484,51.205z"/>
	<g>
		<g>
			<path fill="#0B090A" d="M160.347,54.726c0-1.461-0.786-2.149-2.149-2.149h-3.89V42.084h10.993c4.578,0,6.227,2.039,6.227,4.767
				c0,1.16,0,1.941,0,1.941h0.188c0,0,4.188-7.884,15.766-7.884c13.442,0,22.098,10.603,22.098,25.986
				c0,15.752-9.741,25.979-22.772,25.979c-9.831,0-14.206-6.527-14.206-6.527h-0.196c0,0,0.196,1.755,0.196,4.28v20.53h-12.253
				V54.726z M184.572,82.459c6.812,0,12.537-5.538,12.537-15.377c0-9.441-5.051-15.571-12.356-15.571
				c-6.414,0-12.44,4.676-12.44,15.668C172.313,74.868,176.391,82.459,184.572,82.459z"/>
			<path fill="#0B090A" d="M241.011,40.908c14.207,0,21.985,10.415,21.985,23.544c0,1.462-0.284,4.578-0.284,4.578H228.46
				c0.975,8.753,7.402,13.33,14.89,13.33c7.98,0,13.907-5.552,13.907-5.552l5.163,8.565c0,0-7.591,7.5-19.954,7.5
				c-16.44,0-26.661-11.878-26.661-25.979C215.805,51.609,226.123,40.908,241.011,40.908z M250.355,60.467
				c-0.188-5.942-4.279-10.02-9.345-10.02c-6.331,0-10.804,3.791-12.16,10.02H250.355z"/>
			<path fill="#0B090A" d="M297.157,40.908c15.183,0,27.246,10.805,27.246,25.986c0,15.265-12.063,25.979-27.246,25.979
				c-15.084,0-27.146-10.715-27.146-25.979C270.011,51.713,282.073,40.908,297.157,40.908z M297.157,82.36
				c8.078,0,14.793-6.227,14.793-15.466c0-9.155-6.715-15.481-14.793-15.481c-7.972,0-14.693,6.326-14.693,15.481
				C282.464,76.134,289.186,82.36,297.157,82.36z"/>
			<path fill="#0B090A" d="M335.598,54.726c0-1.461-0.779-2.149-2.136-2.149h-3.889V42.084h10.993c4.569,0,6.227,2.039,6.227,4.767
				c0,1.16,0,1.941,0,1.941h0.194c0,0,4.182-7.884,15.759-7.884c13.442,0,22.097,10.603,22.097,25.986
				c0,15.752-9.733,25.979-22.778,25.979c-9.824,0-14.201-6.527-14.201-6.527h-0.194c0,0,0.194,1.755,0.194,4.28v20.53h-12.266
				V54.726z M359.831,82.459c6.818,0,12.551-5.538,12.551-15.377c0-9.441-5.058-15.571-12.363-15.571
				c-6.414,0-12.453,4.676-12.453,15.668C347.565,74.868,351.656,82.459,359.831,82.459z"/>
			<path fill="#0B090A" d="M394.959,35.266c0-1.461-0.779-2.136-2.136-2.136h-3.89V22.616h11.765c4.578,0,6.624,2.039,6.624,6.61
				v49.921c0,1.363,0.779,2.149,2.143,2.149h3.786v10.407h-11.668c-4.676,0-6.624-1.955-6.624-6.616V35.266z"/>
			<path fill="#0B090A" d="M443.814,40.908c14.215,0,21.992,10.415,21.992,23.544c0,1.462-0.299,4.578-0.299,4.578H431.27
				c0.961,8.753,7.377,13.33,14.877,13.33c7.984,0,13.92-5.552,13.92-5.552l5.156,8.565c0,0-7.592,7.5-19.947,7.5
				c-16.455,0-26.66-11.878-26.66-25.979C418.615,51.609,428.934,40.908,443.814,40.908z M453.152,60.467
				c-0.188-5.942-4.271-10.02-9.338-10.02c-6.332,0-10.805,3.791-12.168,10.02H453.152z"/>
			<path fill="#0B090A" d="M478.359,48.889c0-1.461-0.773-2.143-2.137-2.143h-4.189v-3.702h4.766c3.986,0,5.65,1.657,5.65,5.357
				c0,2.233-0.098,3.896-0.098,3.896h0.189c0,0,3.797-10.415,17.33-10.415c13.037,0,21.018,10.415,21.018,25.499
				c0,15.466-9.053,25.492-21.604,25.492c-12.842,0-16.836-10.514-16.836-10.514h-0.195c0,0,0.195,1.754,0.195,4.28v24.517h-4.09
				V48.889z M499.285,88.978c9.539,0,17.318-7.981,17.318-21.596c0-13.144-7.006-21.514-16.934-21.514
				c-8.941,0-17.318,6.333-17.318,21.611C482.352,78.27,488.189,88.978,499.285,88.978z"/>
			<path fill="#0B090A" d="M553.291,41.883c13.238,0,19.855,10.415,19.855,22.188c0,1.07-0.201,2.623-0.201,2.623h-39.023
				c0,14.115,9.551,22.193,20.842,22.193c9.332,0,15.07-6.137,15.07-6.137l2.24,3.409c0,0-6.818,6.715-17.311,6.715
				c-13.732,0-25.115-9.93-25.115-25.395C529.648,51.024,540.836,41.883,553.291,41.883z M568.861,62.9
				c-0.48-11.876-7.584-17.227-15.668-17.227c-8.947,0-17.221,5.837-18.975,17.227H568.861z"/>
			<path fill="#0B090A" d="M586.965,48.889c0-1.461-0.779-2.143-2.137-2.143h-4.188v-3.702h4.771c3.988,0,5.643,1.657,5.643,5.357
				v3.409c0,2.227-0.188,3.98-0.188,3.98h0.188c2.436-7.479,7.688-13.129,15.377-13.129c1.455,0,2.818,0.284,2.818,0.284v4.092
				c0,0-1.162-0.188-2.242-0.188c-7.59,0-12.355,6.414-14.492,13.616c-1.078,3.409-1.461,7.013-1.461,10.212v21.025h-4.09V48.889z"
				/>
			<path fill="#0B090A" d="M619.08,35.266c0-1.461-0.779-2.136-2.143-2.136h-3.891V22.616h11.779c4.564,0,6.617,2.039,6.617,6.514
				v17.42c0,2.437-0.201,4.188-0.201,4.188h0.201c2.338-4.765,8.467-9.83,17.018-9.83c11.104,0,17.33,5.739,17.33,18.884v19.355
				c0,1.363,0.773,2.149,2.137,2.149h3.904v10.407h-11.779c-4.578,0-6.527-1.955-6.527-6.616V62.316
				c0-6.04-1.662-10.115-7.875-10.115c-6.52,0-11.584,4.278-13.428,10.304c-0.592,1.947-0.779,4.098-0.779,6.429v22.771H619.08
				V35.266z"/>
			<path fill="#0B090A" d="M703.934,40.908c15.18,0,27.26,10.805,27.26,25.986c0,15.265-12.08,25.979-27.26,25.979
				c-15.07,0-27.135-10.715-27.135-25.979C676.799,51.713,688.863,40.908,703.934,40.908z M703.934,82.36
				c8.078,0,14.805-6.227,14.805-15.466c0-9.155-6.727-15.481-14.805-15.481c-7.967,0-14.695,6.326-14.695,15.481
				C689.238,76.134,695.967,82.36,703.934,82.36z"/>
			<path fill="#0B090A" d="M742.186,54.726c0-1.461-0.773-2.149-2.137-2.149h-3.902V42.084h11.779c4.578,0,6.51,2.039,6.51,6.512
				v22.863c0,6.038,1.566,10.129,7.703,10.129c8.947,0,13.922-7.882,13.922-16.746V42.084h12.35v37.063
				c0,1.363,0.779,2.149,2.143,2.149h3.891v10.407h-11.385c-4.285,0-6.523-2.045-6.523-5.545v-1.363
				c0-1.162,0.096-2.233,0.096-2.233h-0.188c-2.338,5.148-8.578,10.312-17.129,10.312c-10.604,0-17.129-5.351-17.129-18.884V54.726z
				"/>
			<path fill="#0B090A" d="M804.467,54.726c0-1.461-0.785-2.149-2.148-2.149h-3.889V42.084h11.291c4.375,0,6.617,1.852,6.617,6.026
				v2.914c0,1.85-0.203,3.123-0.203,3.123h0.203c2.24-7.109,8.176-12.752,15.766-12.752c1.078,0,2.24,0.188,2.24,0.188v12.169
				c0,0-1.268-0.188-3.012-0.188c-5.268,0-11.293,3.012-13.52,10.401c-0.689,2.441-1.086,5.162-1.086,8.092v19.646h-12.26V54.726z"
				/>
		</g>
	</g>
</g>
</svg>
